<svg width="400" height="401" viewBox="0 0 400 401" fill="none" xmlns="http://www.w3.org/2000/svg">
<path d="M185.465 116.191C183.523 117.905 180.668 118.133 178.04 118.133C160.793 118.59 143.545 119.047 126.297 119.504L125.155 86.1505C128.125 85.8079 131.094 86.1505 133.722 87.407C138.976 89.9199 142.403 95.6311 142.288 101.457C153.711 95.1742 180.553 97.4587 186.379 107.625C188.092 110.252 187.749 114.135 185.465 116.191Z" fill="#F4F4F4"/>
<path d="M315.798 53.2539L310.772 177.415C306.545 175.359 302.662 172.732 298.778 169.991C292.953 165.764 287.242 161.081 283.13 155.142C279.018 149.202 276.847 141.663 278.561 134.581C280.274 127.614 286.671 121.56 293.867 121.674C291.125 101.456 290.783 65.019 315.798 53.2539Z" fill="#C6F4C6"/>
<path d="M309.4 213.516L306.773 278.623L131.896 274.054L128.926 189.072C133.153 184.731 137.95 180.847 142.519 177.421C161.366 163.6 186.838 158.46 209.683 163.257C220.534 165.542 231.271 170.225 238.238 179.134C243.95 186.444 246.348 195.468 246.691 204.606C253.659 201.179 263.482 207.804 266.109 215C271.363 212.602 276.96 211.231 282.672 210.66C291.581 209.746 300.719 211.003 309.4 213.516Z" fill="#C6F4C6"/>
<path d="M315.339 61.9375L315.225 66.7349L310.77 177.418L306.772 278.62L131.895 274.051L126.413 119.392L125.27 86.0387L124.471 64.7931L315.339 61.9375Z" stroke="black" stroke-width="1.1974" stroke-miterlimit="5.9869" stroke-linecap="round" stroke-linejoin="round"/>
<path d="M121.615 54.9696L122.071 65.1355C122.186 67.42 124.013 69.1334 126.298 69.1334L314.424 67.3058C316.595 67.3058 318.422 65.5924 318.536 63.308L319.108 54.627L121.615 54.9696Z" fill="black" stroke="black" stroke-width="1.1974" stroke-miterlimit="5.9869" stroke-linecap="round" stroke-linejoin="round"/>
<path d="M319.225 49.7168H326.65L326.078 195.238" stroke="black" stroke-width="1.1974" stroke-miterlimit="5.9869" stroke-linecap="round" stroke-linejoin="round"/>
<path d="M127.898 136.527L311.798 138.812" stroke="black" stroke-width="1.1974" stroke-miterlimit="5.9869" stroke-linecap="round" stroke-linejoin="round"/>
<path d="M125.842 43.205L314.654 40.0068C318.652 39.8926 321.851 43.205 321.622 47.2029L320.823 63.3084L120.131 62.7373L119.103 50.6296C118.761 46.6318 121.845 43.205 125.842 43.205Z" fill="white" stroke="black" stroke-width="1.1974" stroke-miterlimit="5.9869" stroke-linecap="round" stroke-linejoin="round"/>
<path d="M328.93 279.19L161.364 273.936L168.217 283.073L335.898 287.071C336.355 282.959 333.156 279.304 328.93 279.19Z" fill="white" stroke="black" stroke-width="1.1974" stroke-miterlimit="5.9869" stroke-linecap="round" stroke-linejoin="round"/>
<path d="M322.532 176.391L330.299 176.962L329.957 202.662L322.189 200.949L322.532 176.391Z" fill="white" stroke="black" stroke-width="1.1974" stroke-miterlimit="5.9869" stroke-linecap="round" stroke-linejoin="round"/>
<path d="M262.109 240.127C229.326 248.465 227.042 275.765 227.042 275.765L326.531 279.191C326.531 279.077 337.04 220.937 262.109 240.127Z" fill="black" stroke="black" stroke-width="1.1974" stroke-miterlimit="5.9869" stroke-linecap="round" stroke-linejoin="round"/>
<path d="M254.684 257.716C248.173 249.377 242.348 251.205 242.348 251.205L245.546 261.371" stroke="white" stroke-width="1.1974" stroke-miterlimit="5.9869" stroke-linecap="round" stroke-linejoin="round"/>
<path d="M275.017 251.891C268.506 243.553 262.681 245.381 262.681 245.381L265.879 255.547" stroke="white" stroke-width="1.1974" stroke-miterlimit="5.9869" stroke-linecap="round" stroke-linejoin="round"/>
<path d="M255.79 270.107C257.488 270.113 259.236 269.152 260.04 267.656" stroke="white" stroke-width="1.1974" stroke-miterlimit="5.9869" stroke-linecap="round" stroke-linejoin="round"/>
<path d="M276.068 264.1C274.895 265.278 272.932 265.76 271.322 265.131" stroke="white" stroke-width="1.1974" stroke-miterlimit="5.9869" stroke-linecap="round" stroke-linejoin="round"/>
<path d="M265.079 271.652C266.336 271.424 267.706 271.195 268.963 270.967" stroke="white" stroke-width="1.1974" stroke-miterlimit="5.9869" stroke-linecap="round" stroke-linejoin="round"/>
<path d="M267.704 272.91C267.589 272.453 267.475 271.996 267.475 271.539" stroke="white" stroke-width="1.1974" stroke-miterlimit="5.9869" stroke-linecap="round" stroke-linejoin="round"/>
<path d="M303.799 260.914C286.666 255.545 291.121 270.052 294.205 273.935C294.205 273.935 286.552 276.448 285.181 278.39" stroke="white" stroke-width="1.1974" stroke-miterlimit="5.9869" stroke-linecap="round" stroke-linejoin="round"/>
<path d="M239.836 270.851C251.258 270.166 262.11 275.306 264.166 278.733" stroke="white" stroke-width="1.1974" stroke-miterlimit="5.9869" stroke-linecap="round" stroke-linejoin="round"/>
<path d="M326.645 278.619C326.074 284.787 312.824 292.212 310.311 300.664C307.799 309.117 322.762 312.429 320.706 318.483C319.564 321.795 308.712 325.222 301.859 315.513C298.318 310.602 297.29 298.265 311.911 286.957C326.531 275.535 324.475 271.309 324.475 271.309L326.645 278.619Z" fill="black" stroke="black" stroke-width="1.1974" stroke-miterlimit="5.9869" stroke-linecap="round" stroke-linejoin="round"/>
<path d="M275.586 277.592C277.071 274.736 280.498 273.023 283.582 273.48" stroke="white" stroke-width="1.1974" stroke-miterlimit="5.9869" stroke-linecap="round" stroke-linejoin="round"/>
<path d="M316.024 317.768C314.416 317.54 313.383 315.599 313.842 314.001C314.301 312.403 315.909 311.376 317.517 311.148C319.124 310.919 320.847 311.376 322.34 312.175C324.636 313.316 326.588 315.143 328.081 317.312C326.129 313.545 324.062 309.664 324.062 305.44C324.062 301.217 326.703 296.651 330.837 296.08C334.627 295.509 338.072 298.249 340.368 301.217C344.387 306.467 346.11 313.431 345.306 319.937C346.225 318.453 347.143 316.855 348.521 315.942C350.014 315.029 352.081 314.914 353.344 316.17C354.722 317.654 354.148 319.937 353.344 321.649C351.737 324.845 349.21 327.699 346.11 329.526L326.933 330.895C323.029 330.439 319.239 328.612 316.598 325.873C315.45 324.731 314.531 323.362 314.301 321.878C313.842 320.28 314.531 318.453 316.024 317.768Z" fill="#C6F4C6"/>
<path d="M356.211 360.003L360 329.754L312 331.238L316.708 360.003H356.211Z" stroke="black" stroke-width="1.1974" stroke-miterlimit="5.9869" stroke-linecap="round" stroke-linejoin="round"/>
<path d="M356.554 354.865L316.822 356.121" stroke="black" stroke-width="1.1974" stroke-miterlimit="5.9869" stroke-linecap="round" stroke-linejoin="round"/>
<path d="M291.604 342.773C287.85 338.482 287.615 329.673 287.498 325.382C287.498 323.914 287.498 322.332 288.671 321.429C289.844 320.638 291.486 321.09 292.777 321.655C296.413 323.349 299.463 326.285 301.223 329.786C302.865 332.948 303.804 339.611 301.34 342.999C298.173 343.112 294.888 342.886 291.604 342.773Z" fill="#00BE6A"/>
<path d="M314.36 342.887L276 343L277.76 357.003" stroke="black" stroke-width="1.1974" stroke-miterlimit="5.9869" stroke-linecap="round" stroke-linejoin="round"/>
<path d="M299.577 343.338L316 350.905L314.358 342.887L299.577 343.338Z" fill="black"/>
<path d="M154.154 291.034C142.649 304.07 147.899 314.099 157.058 321.118C157.951 317.441 159.068 313.876 160.744 310.422C162.307 307.079 167.334 309.976 165.77 313.319C163.983 316.884 162.866 320.673 162.196 324.572C172.584 330.812 184.759 333.821 184.759 333.821C201.513 274.209 163.871 279.891 154.154 291.034Z" fill="#00BE6A"/>
<path d="M84.4553 286.35C92.4975 273.202 81.3278 252.366 40 272.979C40 272.868 65.802 316.88 84.4553 286.35Z" fill="#00BE6A"/>
<path d="M146.781 202.004C129.914 204.121 117.516 207.129 108.58 210.695C109.25 212.366 110.144 214.038 111.038 215.709C113.16 219.72 107.017 223.286 104.894 219.275C103.889 217.492 102.995 215.598 102.214 213.703C80.5444 225.514 88.9216 241.671 102.325 251.81C152.589 285.126 146.781 202.004 146.781 202.004Z" fill="#00BE6A"/>
<path d="M99.3117 306.632C93.7269 293.595 81.5519 283.456 67.5898 280.559" stroke="black" stroke-width="1.1974" stroke-miterlimit="5.9869" stroke-linecap="round" stroke-linejoin="round"/>
<path d="M118.522 225.738C107.799 235.989 100.762 250.14 99.31 264.848C97.7463 279.556 101.767 294.821 110.256 307.078" stroke="black" stroke-width="1.1974" stroke-miterlimit="5.9869" stroke-linecap="round" stroke-linejoin="round"/>
<path d="M125.67 308.524C126.563 301.504 131.478 295.265 137.845 292.368C144.212 289.471 151.919 289.582 158.397 292.256C164.875 294.93 170.349 299.944 174.146 305.85" stroke="black" stroke-width="1.1974" stroke-miterlimit="5.9869" stroke-linecap="round" stroke-linejoin="round"/>
<path d="M78.0879 304.626L143.319 303.623L138.069 354.098H85.0131L78.0879 304.626Z" fill="white" stroke="black" stroke-width="1.1974" stroke-miterlimit="5.9869" stroke-linecap="round" stroke-linejoin="round"/>
<path d="M101.098 346.746C95.4013 341.397 88.9229 337.275 82.1094 333.709L85.0135 354.1H108.135C105.901 351.537 103.555 349.085 101.098 346.746Z" fill="black"/>
<path d="M146 343.848L141.308 360.004L127.235 359.781L82.1091 358.89L78.6465 348.527L146 343.848Z" fill="white" stroke="black" stroke-width="1.1974" stroke-miterlimit="5.9869" stroke-linecap="round" stroke-linejoin="round"/>
</svg>
