<svg viewBox="0 0 400 400" fill="none" xmlns="http://www.w3.org/2000/svg">
<path d="M301.153 333.17L337.257 202.324C338.004 199.461 335.888 196.597 333.025 196.597L156.862 192.364C151.509 192.24 146.778 196.099 145.906 201.453L129.971 299.307L301.153 333.17Z" fill="black" stroke="black" stroke-width="1.1974" stroke-miterlimit="5.9869" stroke-linecap="round" stroke-linejoin="round"/>
<path d="M292.688 240.172L274.138 293.581L239.652 260.589L292.688 240.172Z" fill="white" stroke="black" stroke-width="1.1974" stroke-miterlimit="5.9869" stroke-linecap="round" stroke-linejoin="round"/>
<path d="M30 200.955L100.839 204.192L110.674 266.316L33.7349 265.32L30 200.955Z" fill="white"/>
<path d="M109.18 257.227L110.674 266.315L33.7351 265.319L33.3616 257.476L109.18 257.227Z" fill="black"/>
<path d="M30.7471 193.982L55.5219 194.48" stroke="black" stroke-width="1.1974" stroke-miterlimit="5.9869" stroke-linecap="round" stroke-linejoin="round"/>
<path d="M59.6304 218.383L60.6263 247.515L77.9314 230.583L59.6304 218.383Z" fill="#E4E4E6"/>
<path d="M267.29 247.641L283.973 185.02L370 188.879L355.185 259.095L267.29 247.641Z" fill="#F4F4F4"/>
<path d="M355.309 193.236L341.739 257.352L340.494 263.452L306.133 258.971L299.286 258.099L252.6 251.999L263.556 211.164L263.68 210.666L269.282 189.377L282.604 189.999L355.309 193.236Z" fill="white"/>
<path d="M317.712 217.389L309.37 247.642L307.876 252.87L306.133 258.971L299.286 258.099L252.6 251.999L263.556 211.164L276.628 212.658L286.836 213.778L295.8 214.899L301.029 215.521L313.852 216.891L317.712 217.389Z" fill="#F5D465"/>
<path d="M355.309 193.236L341.739 257.352L340.494 263.452L306.133 258.971L299.286 258.099L252.6 251.999L263.556 211.164L263.68 210.666L269.282 189.377L282.604 189.999L355.309 193.236Z" stroke="black" stroke-width="1.1974" stroke-miterlimit="5.9869" stroke-linecap="round" stroke-linejoin="round"/>
<path d="M290.696 202.449L281.109 230.71L290.073 232.577L299.659 202.449H290.696Z" fill="white"/>
<path d="M305.884 199.835L295.676 232.952L307.005 235.566L320.201 199.711L305.884 199.835Z" fill="white"/>
<path d="M267.913 242.412L330.784 250.255" stroke="black" stroke-width="1.1974" stroke-miterlimit="5.9869" stroke-linecap="round" stroke-linejoin="round"/>
<path d="M324.808 245.525L321.82 254.24" stroke="black" stroke-width="1.1974" stroke-miterlimit="5.9869" stroke-linecap="round" stroke-linejoin="round"/>
<path d="M324.185 211.164L342.984 211.787" stroke="#C6F4C6" stroke-width="1.1974" stroke-miterlimit="5.9869" stroke-linecap="round" stroke-linejoin="round"/>
<path d="M321.944 220.004L340.743 220.626" stroke="#C6F4C6" stroke-width="1.1974" stroke-miterlimit="5.9869" stroke-linecap="round" stroke-linejoin="round"/>
<path d="M306.382 134.598L294.431 154.891" stroke="#C6F4C6" stroke-width="1.1974" stroke-miterlimit="5.9869" stroke-linecap="round" stroke-linejoin="round"/>
<path d="M324.061 102.228L294.929 66L284.097 71.6023L284.222 71.7268C270.901 78.8231 249.114 90.5258 239.901 95.8792C226.207 103.971 221.227 106.959 225.46 123.891C230.315 147.047 233.801 148.168 239.03 145.802C247.371 142.067 240.15 117.417 240.15 117.417L259.447 150.409L288.33 130.489C304.141 130.24 305.013 116.297 305.013 116.297L324.061 102.726L323.812 102.477L324.061 102.228Z" fill="white"/>
<path d="M99.3445 124.513L221.725 78.4492L270.029 171.697L145.035 230.46L99.3445 124.513Z" fill="white" stroke="black" stroke-width="1.1974" stroke-miterlimit="5.9869" stroke-linecap="round" stroke-linejoin="round"/>
<path d="M232.681 164.974L215.002 171.821L202.677 176.801L153.252 196.347L144.91 199.584L136.943 183.275L109.553 126.38L186.741 100.484L232.681 164.974Z" fill="#F4F4F4"/>
<path d="M142.421 127.997C137.939 137.832 137.067 155.511 137.067 155.511L146.903 157.378L152.131 177.422L163.212 171.944L160.971 157.503C160.971 157.503 168.689 157.876 169.312 151.652C169.934 145.427 154.248 124.885 154.248 124.885L142.421 127.997Z" fill="white"/>
<path d="M146.405 158.002L150.388 173.066" stroke="black" stroke-width="1.1974" stroke-miterlimit="5.9869" stroke-linecap="round" stroke-linejoin="round"/>
<path d="M147.4 141.07C147.649 141.568 147.898 142.066 148.023 142.564" stroke="black" stroke-width="1.1974" stroke-miterlimit="5.9869" stroke-linecap="round" stroke-linejoin="round"/>
<path d="M157.236 136.215C157.485 136.713 157.734 137.211 157.858 137.709" stroke="black" stroke-width="1.1974" stroke-miterlimit="5.9869" stroke-linecap="round" stroke-linejoin="round"/>
<path d="M153.625 124.139C167.569 145.552 179.396 157.379 153.75 159.496" stroke="black" stroke-width="1.1974" stroke-miterlimit="5.9869" stroke-linecap="round" stroke-linejoin="round"/>
<path d="M155.119 140.697C159.103 140.946 159.601 141.818 155.866 143.934" stroke="black" stroke-width="1.1974" stroke-miterlimit="5.9869" stroke-linecap="round" stroke-linejoin="round"/>
<path d="M132.585 152.896C143.417 163.728 147.152 158.001 147.152 158.001L145.658 154.141C144.039 154.888 140.927 156.009 139.557 154.39C137.69 152.274 140.18 149.411 142.67 148.539C142.67 148.539 144.039 144.057 140.304 135.591C157.111 132.604 158.356 124.76 157.609 123.391C156.613 121.399 153.75 121.025 151.135 122.395C146.654 124.636 142.67 124.387 136.943 128.495C128.602 134.222 123.746 142.812 132.585 152.896Z" fill="black"/>
<path d="M161.966 163.854C161.966 163.854 155.617 162.235 153.501 159.87C152.38 158.998 161.468 159.123 161.095 158.127L161.966 163.854Z" fill="black"/>
<path d="M157.983 149.164C156.489 150.035 154.497 149.661 153.252 148.541" stroke="black" stroke-width="1.1974" stroke-miterlimit="5.9869" stroke-linecap="round" stroke-linejoin="round"/>
<path d="M163.585 168.709L160.971 158.998" stroke="black" stroke-width="1.1974" stroke-miterlimit="5.9869" stroke-linecap="round" stroke-linejoin="round"/>
<path d="M202.677 176.802L153.252 196.348L144.911 199.709L136.943 183.275C139.308 179.665 142.67 176.677 146.778 174.934L171.055 164.477C179.521 160.866 189.48 162.858 195.83 169.581L202.677 176.802Z" fill="black"/>
<path d="M180.392 134.722L192.842 157.753L202.303 134.473L180.392 134.722Z" fill="white"/>
<path d="M146.902 187.508L213.259 158.998" stroke="white" stroke-width="1.1974" stroke-miterlimit="5.9869" stroke-linecap="round" stroke-linejoin="round"/>
<path d="M152.505 180.66L155.866 189.25" stroke="white" stroke-width="1.1974" stroke-miterlimit="5.9869" stroke-linecap="round" stroke-linejoin="round"/>
<path d="M103.702 134.224L230.19 94.1358L221.725 78.4492L99.3445 124.513L103.702 134.224Z" fill="black"/>
<path d="M187.986 124.512C191.149 124.512 193.713 121.948 193.713 118.785C193.713 115.623 191.149 113.059 187.986 113.059C184.823 113.059 182.259 115.623 182.259 118.785C182.259 121.948 184.823 124.512 187.986 124.512Z" fill="#F5D465"/>
<path d="M174.665 203.195L239.279 176.552L235.17 168.709L168.814 195.227L174.665 203.195Z" fill="#E4E4E6"/>
<path d="M279.989 105.216C269.407 124.264 240.15 117.417 240.15 117.417C240.15 117.417 247.371 142.067 239.03 145.802C233.178 148.417 229.692 140.822 225.46 123.891C221.227 106.959 226.207 103.971 239.901 95.8792C253.596 87.7869 294.804 66 294.804 66" fill="white"/>
<path d="M279.989 105.216C269.407 124.264 240.15 117.417 240.15 117.417C240.15 117.417 247.246 142.067 239.03 145.802C233.925 148.168 230.315 147.047 225.46 123.891C221.849 106.835 226.207 103.971 239.901 95.8792C253.596 87.7869 294.804 66 294.804 66L323.936 102.726L304.888 116.297C304.888 116.297 304.017 130.24 288.828 130.24L259.945 150.16" stroke="black" stroke-width="1.1974" stroke-miterlimit="5.9869" stroke-linecap="round" stroke-linejoin="round"/>
<path d="M232.556 135.344C234.299 135.593 235.917 136.713 236.664 138.332C237.411 139.95 237.038 141.942 236.042 143.312" stroke="black" stroke-width="1.1974" stroke-miterlimit="5.9869" stroke-linecap="round" stroke-linejoin="round"/>
<path d="M294.804 66L283.973 71.6023L310.242 112.313L324.061 102.228L294.804 66Z" fill="black"/>
<path d="M259.323 136.715L254.592 139.827" stroke="black" stroke-width="1.1974" stroke-miterlimit="5.9869" stroke-linecap="round" stroke-linejoin="round"/>
<path d="M251.977 128.621L249.114 130.613" stroke="black" stroke-width="1.1974" stroke-miterlimit="5.9869" stroke-linecap="round" stroke-linejoin="round"/>
<path d="M250.857 126.256L262.186 139.577" stroke="black" stroke-width="1.1974" stroke-miterlimit="5.9869" stroke-linecap="round" stroke-linejoin="round"/>
<path d="M103.702 281.627L88.2644 280.258L95.3607 311.755H113.288L103.702 281.627Z" fill="#F5D465"/>
<path d="M89.7584 212.906L234.05 207.179C237.909 207.055 241.52 209.171 243.138 212.657L301.154 333.294L112.915 327.692L84.1561 220.625C83.1601 216.765 85.899 213.03 89.7584 212.906Z" fill="white"/>
<path d="M109.802 231.331L225.958 226.725L270.527 319.475L132.336 315.366L109.802 231.331Z" fill="#C6F4C6"/>
<path d="M183.131 237.806C176.532 232.452 166.946 233.324 161.344 239.673L147.276 255.609L131.589 241.416C125.364 235.689 115.654 235.938 109.802 242.039C103.826 248.014 103.702 257.725 109.429 263.95L150.264 307.897L185.994 259.593C190.974 252.621 189.729 243.035 183.131 237.806Z" fill="#00BE6A"/>
<path d="M201.805 286.856L206.163 310.386L251.48 312.129L241.022 284.988L201.805 286.856Z" stroke="black" stroke-width="1.1974" stroke-miterlimit="5.9869" stroke-linecap="round" stroke-linejoin="round"/>
<path d="M89.7584 212.906L234.05 207.179C237.909 207.055 241.52 209.171 243.138 212.657L301.154 333.294L112.915 327.692L84.1561 220.625C83.1601 216.765 85.899 213.03 89.7584 212.906Z" stroke="black" stroke-width="1.1974" stroke-miterlimit="5.9869" stroke-linecap="round" stroke-linejoin="round"/>
<path d="M211.143 294.451H232.556" stroke="white" stroke-width="1.1974" stroke-miterlimit="5.9869" stroke-linecap="round" stroke-linejoin="round"/>
</svg>
