<svg viewBox="0 0 180 180" fill="none" xmlns="http://www.w3.org/2000/svg">
    <rect x="-23.9229" y="-23.5394" width="228.1" height="228.1" rx="2.281" fill="#73A4EE"/>
    <path d="M60.3745 184.726C74.0676 184.726 85.168 173.626 85.168 159.933C85.168 146.24 74.0676 135.139 60.3745 135.139C46.6815 135.139 35.5811 146.24 35.5811 159.933C35.5811 173.626 46.6815 184.726 60.3745 184.726Z" fill="#C7EBFF"/>
    <path d="M4.59052 58.2788C12.1217 58.2788 18.2269 52.1735 18.2269 44.6423C18.2269 37.1111 12.1217 31.0059 4.59052 31.0059C-2.94066 31.0059 -9.0459 37.1111 -9.0459 44.6423C-9.0459 52.1735 -2.94066 58.2788 4.59052 58.2788Z" fill="#A4E1B7"/>
    <path d="M168.226 154.973C175.757 154.973 181.863 148.868 181.863 141.337C181.863 133.806 175.757 127.7 168.226 127.7C160.695 127.7 154.59 133.806 154.59 141.337C154.59 148.868 160.695 154.973 168.226 154.973Z" fill="#A4E1B7"/>
    <path d="M119.879 100.429C150.003 100.429 174.424 76.0078 174.424 45.883C174.424 15.7583 150.003 -8.66266 119.879 -8.66266C89.7539 -8.66266 65.333 15.7583 65.333 45.883C65.333 76.0078 89.7539 100.429 119.879 100.429Z" fill="#C7EBFF"/>
    <path d="M143.683 94.9731C131.867 102.967 117.629 108.873 103.393 114.103C99.2385 115.629 95.0818 117.098 90.987 118.545C76.433 123.689 62.6604 128.556 52.554 134.727C47.6424 137.725 43.5531 141.055 40.6465 144.911C43.4814 141.194 47.3428 138.302 51.8079 136.658C52.2632 136.364 52.7274 136.073 53.2 135.785C63.1844 129.689 76.7836 124.882 91.3134 119.746C95.4279 118.291 99.6176 116.81 103.82 115.267C122.348 108.461 141.092 100.44 154.485 88.0452C151.186 90.7565 147.563 93.088 143.683 94.9731Z" fill="#151515"/>
    <path d="M172.829 32.7408C172.679 32.1372 172.52 31.5377 172.351 30.9423L172.556 30.9097C172.654 31.5246 172.745 32.135 172.829 32.7408Z" fill="#151515"/>
    <path fill-rule="evenodd" clip-rule="evenodd" d="M177.294 40.5037C174.214 3.53745 136.902 -20.4423 101.996 -7.88951L-0.352856 28.917C-9.13097 32.0737 -13.6337 41.7981 -10.3623 50.5342L33.5182 167.715C38.7983 181.816 53.9535 189.569 68.4779 185.601L171.283 157.515C180.215 155.075 186.137 146.612 185.368 137.384L177.294 40.5037ZM101.577 -9.05604C137.25 -21.8847 175.381 2.62205 178.53 40.4008L186.603 137.281C187.422 147.104 181.118 156.114 171.61 158.711L68.8046 186.797C53.6621 190.934 37.8621 182.85 32.3572 168.15L-11.5232 50.9689C-15.0369 41.5857 -10.2007 31.141 -0.772362 27.7504L101.577 -9.05604Z" fill="#151515"/>
    <path d="M44.1621 105.163L-3.24964 144.208L-7.97806 138.466L39.4337 99.4212L44.1621 105.163Z" fill="#A4E1B7"/>
    <path d="M14.8106 149.668L-12.3575 172.042L-17.0859 166.3L10.0822 143.926L14.8106 149.668Z" fill="#A4E1B7"/>
</svg>
