<svg viewBox="0 0 400 401" fill="none" xmlns="http://www.w3.org/2000/svg">
<rect width="400" height="400" transform="translate(0 0.00390625)"/>
<path d="M149.779 264.416H340.559" stroke="black" stroke-width="1.1974" stroke-miterlimit="5.9869" stroke-linecap="round" stroke-linejoin="round"/>
<path d="M199.519 104.158L357.831 90.2616C360.039 90.0018 361.987 91.9499 361.727 94.2876L343.156 248.703C342.896 250.521 341.338 251.95 339.39 251.82L184.454 241.95C182.377 241.82 180.948 240.002 181.208 238.054L196.532 107.404C196.532 105.586 197.831 104.288 199.519 104.158Z" fill="black"/>
<path d="M193.805 97.9233L352.117 84.0272C354.325 83.7675 356.273 85.7155 356.013 88.0532L337.442 242.339C337.182 244.157 335.623 245.586 333.675 245.456L178.74 235.586C176.662 235.456 175.234 233.638 175.494 231.69L190.688 101.04C190.818 99.3519 192.117 98.0532 193.805 97.9233Z" fill="white"/>
<path d="M312.117 127.014L317.572 172.598L346.143 172.338L351.078 127.144L312.117 127.014Z" fill="#F5D465"/>
<path d="M58.2208 122.469L297.831 120.91L309.649 229.092L39 222.858L58.2208 122.469Z" fill="#00BE6A"/>
<path d="M188.61 129.092L255.234 130.39L250.948 194.806L180.299 192.598L188.61 129.092Z" fill="#C6F4C6"/>
<path d="M193.805 97.9233L352.117 84.0272C354.325 83.7675 356.273 85.7155 356.013 88.0532L337.442 242.339C337.182 244.157 335.623 245.586 333.675 245.456L178.74 235.586C176.662 235.456 175.234 233.638 175.494 231.69L190.688 101.04C190.818 99.3519 192.117 98.0532 193.805 97.9233Z" stroke="black" stroke-width="1.1974" stroke-miterlimit="5.9869" stroke-linecap="round" stroke-linejoin="round"/>
<path d="M190.299 106.755L352.896 104.807" stroke="black" stroke-width="1.1974" stroke-miterlimit="5.9869" stroke-linecap="round" stroke-linejoin="round"/>
<path d="M267.572 154.676L308.61 170.78L295.364 180.78L307.052 194.806L296.273 199.221L286.922 187.273L273.675 197.273L267.572 154.676Z" stroke="white" stroke-width="1.1974" stroke-miterlimit="5.9869" stroke-linecap="round" stroke-linejoin="round"/>
<path d="M196.273 213.896L318.48 219.871" stroke="black" stroke-width="1.1974" stroke-miterlimit="5.9869" stroke-linecap="round" stroke-linejoin="round"/>
<path d="M286.662 222.728C289.101 222.728 291.078 220.751 291.078 218.312C291.078 215.873 289.101 213.896 286.662 213.896C284.224 213.896 282.247 215.873 282.247 218.312C282.247 220.751 284.224 222.728 286.662 222.728Z" fill="black"/>
<path d="M285.364 242.988L282.247 263.768" stroke="black" stroke-width="1.1974" stroke-miterlimit="5.9869" stroke-linecap="round" stroke-linejoin="round"/>
<path d="M283.675 254.027L272.636 250.391L278.611 242.469H285.364L283.675 254.027Z" fill="black"/>
<path d="M309 101.04C311.439 101.04 313.416 99.0632 313.416 96.6246C313.416 94.1859 311.439 92.209 309 92.209C306.561 92.209 304.584 94.1859 304.584 96.6246C304.584 99.0632 306.561 101.04 309 101.04Z" fill="#E4E4E6"/>
<path d="M325.753 100.261C328.192 100.261 330.169 98.2839 330.169 95.8453C330.169 93.4066 328.192 91.4297 325.753 91.4297C323.315 91.4297 321.338 93.4066 321.338 95.8453C321.338 98.2839 323.315 100.261 325.753 100.261Z" fill="#E4E4E6"/>
<path d="M342.507 99.3526C344.945 99.3526 346.922 97.3757 346.922 94.9371C346.922 92.4984 344.945 90.5215 342.507 90.5215C340.068 90.5215 338.091 92.4984 338.091 94.9371C338.091 97.3757 340.068 99.3526 342.507 99.3526Z" fill="#E4E4E6"/>
<path d="M245.883 146.494L244.844 181.039H253.675L257.312 144.676L245.883 146.494Z" fill="white"/>
<path d="M264.065 143.638L261.208 181.431L272.247 181.041L270.558 179.742L267.571 154.677L274.584 157.275L276.922 141.561L264.065 143.638Z" fill="white"/>
<path d="M189 140.391H208.091" stroke="white" stroke-width="1.1974" stroke-miterlimit="5.9869" stroke-linecap="round" stroke-linejoin="round"/>
<path d="M201.727 152.598H206.792" stroke="white" stroke-width="1.1974" stroke-miterlimit="5.9869" stroke-linecap="round" stroke-linejoin="round"/>
<path d="M256.792 269.352L301.078 270.261L279.13 303.507L235.494 295.715" fill="white"/>
<path d="M256.792 269.352L301.078 270.261L279.13 303.507L235.494 295.715" stroke="black" stroke-width="1.1974" stroke-miterlimit="5.9869" stroke-linecap="round" stroke-linejoin="round"/>
<path d="M253.545 283.507L270.169 285.455L277.052 278.312L286.662 279.351L275.234 298.053L249.39 292.598L253.545 283.507Z" fill="#E4E4E6"/>
<path d="M207.701 295.065L282.247 307.533L301.857 279.221L301.078 270.26L279.13 303.507L210.169 292.857L207.701 295.065Z" fill="black" stroke="black" stroke-width="1.1974" stroke-miterlimit="5.9869" stroke-linecap="round" stroke-linejoin="round"/>
<path d="M154.065 134.936C153.286 144.416 151.078 161.299 151.078 161.299C151.078 161.299 157.052 165.195 155.883 166.754C154.844 168.312 149.909 167.533 149.909 167.533C149.909 167.533 147.052 187.793 142.636 190.65C138.221 193.507 135.104 191.689 131.208 189.611C127.182 187.533 125.623 187.793 125.623 187.793L121.597 198.572L94.0649 199.351L111.857 167.663L113.156 139.351L154.065 134.936Z" fill="white"/>
<path d="M222.377 233.377L275.883 236.364C279 236.494 280.559 240.13 278.61 242.468L226.403 306.494C225.234 307.922 223.286 308.312 221.727 307.403L181.208 285.844C179.13 284.676 178.61 281.948 180.169 280.13L219.39 234.676C220.039 233.767 221.208 233.377 222.377 233.377Z" fill="white" stroke="black" stroke-width="1.1974" stroke-miterlimit="5.9869" stroke-linecap="round" stroke-linejoin="round"/>
<path d="M48.7402 309.611H135.234L129.909 285.845L121.727 195.066L118.87 194.157C98.0909 187.144 75.7532 199.481 70.5584 220.78L48.7402 309.611Z" fill="black" stroke="black" stroke-width="1.1974" stroke-miterlimit="5.9869" stroke-linecap="round" stroke-linejoin="round"/>
<path d="M153.416 135.324C152.506 142.337 151.857 151.298 150.818 159.87C150.688 161.168 162.117 168.441 149.909 167.532C148.351 179.09 145.753 189.61 141.468 191.558C135.623 194.155 127.182 187.532 127.182 187.532L118.61 202.207" stroke="black" stroke-width="1.1974" stroke-miterlimit="5.9869" stroke-linecap="round" stroke-linejoin="round"/>
<path d="M152.636 140.13C158.221 138.702 159.779 133.767 159.649 129.481C159.26 121.429 149.26 122.208 142.896 121.949C134.065 121.169 123.286 117.923 114.195 120.26C87.0519 127.273 91.7272 159.091 95.3635 165.455C98.9999 171.819 106.792 177.403 115.883 171.039C117.701 169.741 118.48 167.403 119.13 165.325C110.169 162.598 110.818 152.728 120.688 153.247C123.416 152.858 128.61 159.871 132.117 150.52C136.922 148.572 146.662 147.273 152.636 140.13Z" fill="black"/>
<path d="M148.74 153.768C148.221 154.547 147.701 155.456 147.182 156.235" stroke="black" stroke-width="1.1974" stroke-miterlimit="5.9869" stroke-linecap="round" stroke-linejoin="round"/>
<path d="M127.182 187.663C126.273 187.013 125.493 186.104 124.584 185.195L123.026 194.806L127.182 187.663Z" fill="black" stroke="black" stroke-width="1.1974" stroke-miterlimit="5.9869" stroke-linecap="round" stroke-linejoin="round"/>
<path d="M141.727 174.026C140.429 173.637 139.519 172.727 139 171.559" stroke="black" stroke-width="1.1974" stroke-miterlimit="5.9869" stroke-linecap="round" stroke-linejoin="round"/>
<path d="M87.8312 161.299C78.2208 161.819 74.3247 166.624 76.013 173.767C78.4805 184.546 94.1948 183.247 100.169 176.104C105.753 169.351 108.351 159.221 104.325 156.104C100.169 153.117 94.065 160.909 87.8312 161.299Z" fill="black"/>
<path d="M165.493 272.727L184.065 266.493L192.117 258.441L201.338 259.48L200.948 262.467L211.338 287.922L197.441 292.597C197.441 292.597 196.013 295.844 191.727 296.363C187.441 296.883 184.844 295.844 184.844 295.844L162.766 303.376L165.493 272.727Z" fill="white"/>
<path d="M141.987 154.546C139.909 164.026 143.675 165.714 145.104 165.974C147.701 166.494 150.818 163.377 154.195 152.078" stroke="black" stroke-width="1.1974" stroke-miterlimit="5.9869" stroke-linecap="round" stroke-linejoin="round"/>
<path d="M141.078 158.312L127.701 153.117" stroke="black" stroke-width="1.1974" stroke-miterlimit="5.9869" stroke-linecap="round" stroke-linejoin="round"/>
<path d="M109.649 170.779C109.779 170.779 95.2336 196.753 95.2336 196.753" stroke="black" stroke-width="1.1974" stroke-miterlimit="5.9869" stroke-linecap="round" stroke-linejoin="round"/>
<path d="M235.753 262.728L243.156 269.481L233.286 271.949L190.299 260.78C187.572 260.001 185.753 257.403 186.403 254.936C187.052 252.338 189.909 250.91 192.636 251.689L235.753 262.728Z" fill="white" stroke="black" stroke-width="1.1974" stroke-miterlimit="5.9869" stroke-linecap="round" stroke-linejoin="round"/>
<path d="M120.429 279.091L167.961 270.26C167.961 270.52 167.961 270.909 167.961 271.169C168.61 282.338 169.649 293.377 170.169 304.545L119.649 314.805C115.753 315.714 109.39 315.714 104.974 312.857C113.675 300.649 120.429 279.091 120.429 279.091Z" fill="black" stroke="black" stroke-width="1.1974" stroke-miterlimit="5.9869" stroke-linecap="round" stroke-linejoin="round"/>
<path d="M112.376 193.507L114.065 193.377C123.805 192.988 131.987 200.78 131.857 210.65L130.558 283.897C128.74 286.234 113.286 303.247 105.104 312.858C99.3895 310.131 94.3245 302.598 94.5843 296.754L95.883 226.364L96.2726 210.001C96.4025 201.299 103.415 193.897 112.376 193.507Z" fill="black" stroke="black" stroke-width="1.1974" stroke-miterlimit="5.9869" stroke-linecap="round" stroke-linejoin="round"/>
<path d="M97.8311 307.793C95.3635 304.806 94.4544 301.039 94.5843 296.883L95.883 223.637" stroke="white" stroke-width="1.1974" stroke-miterlimit="5.9869" stroke-linecap="round" stroke-linejoin="round"/>
<path d="M130.039 277.143L122.766 277.792" stroke="white" stroke-width="1.1974" stroke-miterlimit="5.9869" stroke-linecap="round" stroke-linejoin="round"/>
<path d="M193.156 265.455C196.662 263.897 206.273 259.611 210.688 258.183C214.974 256.754 220.688 257.533 223.286 258.313C225.883 259.222 231.208 260.261 231.208 261.819C231.208 263.378 229.13 264.936 229.13 264.936L220.299 264.546C220.299 264.546 223.805 266.235 223.286 269.871C223.286 269.871 225.753 273.378 224.844 275.975C223.935 278.572 222.896 279.481 222.896 279.481C222.896 279.481 225.104 282.079 224.584 284.676C224.065 287.274 219.779 290.261 219.779 290.261C219.779 290.261 213.416 291.689 211.078 289.222L195.623 292.858L193.156 265.455Z" fill="white"/>
<path d="M167.571 271.948L184.195 266.623C186.143 264.935 187.701 262.987 190.428 260.779" stroke="black" stroke-width="1.1974" stroke-miterlimit="5.9869" stroke-linecap="round" stroke-linejoin="round"/>
<path d="M196.922 263.506C196.922 263.506 206.532 259.09 211.597 257.662C216.662 256.233 220.428 257.792 228.091 259.48C232.247 260.389 231.597 263.116 229.909 264.415C228.221 265.714 220.948 264.545 220.948 264.545C220.948 264.545 225.234 267.792 222.636 271.039C222.636 271.039 227.571 275.064 222.636 278.961C222.636 278.961 227.441 284.026 222.377 288.181C218.351 291.428 214.195 292.207 211.338 288.571L196.922 293.246C196.922 293.246 192.377 298.961 184.974 296.103L162.636 304.545" stroke="black" stroke-width="1.1974" stroke-miterlimit="5.9869" stroke-linecap="round" stroke-linejoin="round"/>
<path d="M220.948 264.546C220.948 264.546 216.532 263.637 208.221 267.274" stroke="black" stroke-width="1.1974" stroke-miterlimit="5.9869" stroke-linecap="round" stroke-linejoin="round"/>
<path d="M222.636 271.039C222.636 271.039 219 270.129 210.688 273.766" stroke="black" stroke-width="1.1974" stroke-miterlimit="5.9869" stroke-linecap="round" stroke-linejoin="round"/>
<path d="M223.156 278.832C223.156 278.832 220.169 277.274 211.857 280.91" stroke="black" stroke-width="1.1974" stroke-miterlimit="5.9869" stroke-linecap="round" stroke-linejoin="round"/>
<path d="M211.338 288.572L216.532 286.754" stroke="black" stroke-width="1.1974" stroke-miterlimit="5.9869" stroke-linecap="round" stroke-linejoin="round"/>
<path d="M235.753 262.729L233.286 271.949" stroke="black" stroke-width="1.1974" stroke-miterlimit="5.9869" stroke-linecap="round" stroke-linejoin="round"/>
<path d="M213.156 253.248C215.623 251.43 218.48 250.131 221.467 249.222C223.286 248.703 225.364 248.443 226.792 249.482C228.351 250.521 228.351 253.508 226.532 253.897C230.039 253.378 233.675 252.858 237.182 252.339C239.649 251.949 242.247 251.69 244.714 251.3C249.519 250.651 254.195 250.001 259 249.222" stroke="black" stroke-width="1.1974" stroke-miterlimit="5.9869" stroke-linecap="round" stroke-linejoin="round"/>
<path d="M170.169 202.6L156.013 214.288" stroke="#C6F4C6" stroke-width="1.1974" stroke-miterlimit="5.9869" stroke-linecap="round" stroke-linejoin="round"/>
<path d="M55.7532 141.95C59.985 141.95 63.4155 138.519 63.4155 134.287C63.4155 130.056 59.985 126.625 55.7532 126.625C51.5214 126.625 48.0908 130.056 48.0908 134.287C48.0908 138.519 51.5214 141.95 55.7532 141.95Z" stroke="#C6F4C6" stroke-width="1.1974" stroke-miterlimit="5.9869" stroke-linecap="round" stroke-linejoin="round"/>
</svg>
