<svg width="50" height="50" viewBox="0 0 50 50" fill="none" xmlns="http://www.w3.org/2000/svg">
<rect y="0.000976562" width="50" height="50" rx="25" fill="#F5F5F5"/>
<path fill-rule="evenodd" clip-rule="evenodd" d="M12.9502 16.0012C12.9502 15.5593 13.3084 15.2012 13.7502 15.2012H15.3273C15.6642 15.2012 15.9918 15.3109 16.2607 15.5137C16.5296 15.7166 16.7252 16.0015 16.8177 16.3254L17.5679 18.9512H33.7859C34.0369 18.9512 34.2734 19.069 34.4246 19.2694C34.5758 19.4698 34.6241 19.7296 34.5551 19.9709L32.0802 28.633C31.9429 29.1136 31.6528 29.5364 31.2538 29.8374C30.8548 30.1384 30.3686 30.3012 29.8687 30.3012H20.8816C20.3818 30.3012 19.8956 30.1384 19.4966 29.8374C19.0976 29.5364 18.8075 29.1136 18.6701 28.633L16.2003 19.9886C16.1968 19.9772 16.1935 19.9657 16.1904 19.9541L15.2896 16.8012H13.7502C13.3084 16.8012 12.9502 16.443 12.9502 16.0012ZM18.0251 20.5512L20.2086 28.1935C20.2504 28.3397 20.3387 28.4684 20.4601 28.56C20.5816 28.6516 20.7295 28.7012 20.8816 28.7012H29.8687C30.0209 28.7012 30.1688 28.6516 30.2903 28.56C30.4117 28.4684 30.5 28.3397 30.5418 28.1935L32.7253 20.5512H18.0251ZM19.76 33.1621C19.76 32.7203 20.1181 32.3621 20.56 32.3621H20.5612C21.003 32.3621 21.3612 32.7203 21.3612 33.1621C21.3612 33.6039 21.003 33.9621 20.5612 33.9621H20.56C20.1181 33.9621 19.76 33.6039 19.76 33.1621ZM29.36 33.1621C29.36 32.7203 29.7181 32.3621 30.16 32.3621H30.1612C30.603 32.3621 30.9612 32.7203 30.9612 33.1621C30.9612 33.6039 30.603 33.9621 30.1612 33.9621H30.16C29.7181 33.9621 29.36 33.6039 29.36 33.1621Z" fill="#262626"/>
</svg>
