<svg width="50" height="50" viewBox="0 0 50 50" fill="none" xmlns="http://www.w3.org/2000/svg">
<rect y="0.000976562" width="50" height="50" rx="25" fill="#F5F5F5"/>
<path fill-rule="evenodd" clip-rule="evenodd" d="M28.3655 13.7885C28.6837 13.9518 28.8548 14.3064 28.7847 14.6571L27.4181 21.49L32.7811 23.5012C33.0312 23.5949 33.218 23.8074 33.279 24.0674C33.3401 24.3275 33.2673 24.6008 33.0851 24.7961L22.5851 36.0461C22.341 36.3075 21.9531 36.3753 21.6349 36.212C21.3168 36.0487 21.1456 35.694 21.2157 35.3433L22.5823 28.5104L17.2193 26.4993C16.9692 26.4055 16.7824 26.1931 16.7214 25.933C16.6603 25.673 16.7331 25.3996 16.9154 25.2044L27.4154 13.9544C27.6594 13.6929 28.0473 13.6252 28.3655 13.7885ZM18.9015 25.4213L23.7811 27.2512C24.1483 27.3889 24.3616 27.7725 24.2847 28.1571L23.337 32.8955L31.0989 24.5791L26.2193 22.7493C25.8521 22.6116 25.6388 22.2279 25.7157 21.8433L26.6634 17.105L18.9015 25.4213Z" fill="#262626"/>
</svg>
