<svg width="20" height="20" viewBox="0 0 20 20" fill="none" xmlns="http://www.w3.org/2000/svg">
    <path d="M14 8.99933C14.5523 8.99933 15 9.44704 15 9.99933C15 10.5516 14.5523 10.9993 14 10.9993C13.4477 10.9993 13 10.5516 13 9.99933C13 9.44704 13.4477 8.99933 14 8.99933Z" fill="black"/>
    <path d="M10 8.99933C10.5523 8.99933 11 9.44704 11 9.99933C11 10.5516 10.5523 10.9993 10 10.9993C9.44772 10.9993 9 10.5516 9 9.99933C9 9.44704 9.44772 8.99933 10 8.99933Z" fill="black"/>
    <path d="M6 8.99933C6.55228 8.99933 7 9.44704 7 9.99933C7 10.5516 6.55228 10.9993 6 10.9993C5.44772 10.9993 5 10.5516 5 9.99933C5 9.44704 5.44772 8.99933 6 8.99933Z" fill="black"/>
</svg>
