<svg width="24" height="24" viewBox="0 0 24 24" fill="none" xmlns="http://www.w3.org/2000/svg">
    <path fill-rule="evenodd" clip-rule="evenodd" d="M12.0002 3.80068C7.47146 3.80068 3.8002 7.47195 3.8002 12.0007C3.8002 16.5294 7.47146 20.2007 12.0002 20.2007C16.5289 20.2007 20.2002 16.5294 20.2002 12.0007C20.2002 7.47195 16.5289 3.80068 12.0002 3.80068ZM2.2002 12.0007C2.2002 6.58829 6.5878 2.20068 12.0002 2.20068C17.4126 2.20068 21.8002 6.58829 21.8002 12.0007C21.8002 17.4131 17.4126 21.8007 12.0002 21.8007C6.5878 21.8007 2.2002 17.4131 2.2002 12.0007ZM10.6895 6.96192C11.3154 6.70269 12.004 6.63487 12.6684 6.76702C13.3328 6.89917 13.9431 7.22536 14.4221 7.70435C14.9011 8.18334 15.2273 8.79361 15.3594 9.458C15.4916 10.1224 15.4238 10.811 15.1645 11.4369C14.9053 12.0627 14.4663 12.5976 13.9031 12.9739C13.565 13.1998 13.1914 13.3624 12.8002 13.4564V13.5011C12.8002 13.943 12.442 14.3011 12.0002 14.3011C11.5584 14.3011 11.2002 13.943 11.2002 13.5011V12.7511C11.2002 12.539 11.2845 12.3355 11.4345 12.1855C11.5846 12.0354 11.788 11.9511 12.0002 11.9511C12.3612 11.9511 12.714 11.8441 13.0142 11.6436C13.3143 11.443 13.5482 11.158 13.6863 10.8246C13.8245 10.4911 13.8606 10.1242 13.7902 9.77015C13.7198 9.41614 13.546 9.09097 13.2907 8.83574C13.0355 8.58051 12.7103 8.40669 12.3563 8.33628C12.0022 8.26586 11.6353 8.302 11.3018 8.44013C10.9683 8.57826 10.6833 8.81217 10.4827 9.11229C10.2822 9.4124 10.1752 9.76524 10.1752 10.1262C10.1752 10.568 9.81701 10.9262 9.37518 10.9262C8.93335 10.9262 8.57518 10.568 8.57518 10.1262C8.57518 9.44878 8.77606 8.78659 9.15241 8.22336C9.52876 7.66013 10.0637 7.22114 10.6895 6.96192ZM12.0001 15.7007C12.4419 15.7007 12.8001 16.0589 12.8001 16.5007V16.5107C12.8001 16.9525 12.4419 17.3107 12.0001 17.3107C11.5582 17.3107 11.2001 16.9525 11.2001 16.5107V16.5007C11.2001 16.0589 11.5582 15.7007 12.0001 15.7007Z" fill="#21BA72"/>
</svg>
