<svg width="50" height="50" viewBox="0 0 50 50" fill="none" xmlns="http://www.w3.org/2000/svg">
<rect width="50" height="50" rx="25" fill="white"/>
<path fill-rule="evenodd" clip-rule="evenodd" d="M20.5 14.4492C20.9418 14.4492 21.3 14.8074 21.3 15.2492V15.9492H28.7V15.2492C28.7 14.8074 29.0581 14.4492 29.5 14.4492C29.9418 14.4492 30.3 14.8074 30.3 15.2492V15.9492H32.5C33.356 15.9492 34.05 16.6432 34.05 17.4992V32.4992C34.05 33.3553 33.356 34.0492 32.5 34.0492H17.5C16.6439 34.0492 15.95 33.3553 15.95 32.4992V17.4992C15.95 16.6432 16.6439 15.9492 17.5 15.9492H19.7V15.2492C19.7 14.8074 20.0581 14.4492 20.5 14.4492ZM19.7 17.5492H17.55V20.4492H32.45V17.5492H30.3V18.2492C30.3 18.691 29.9418 19.0492 29.5 19.0492C29.0581 19.0492 28.7 18.691 28.7 18.2492V17.5492H21.3V18.2492C21.3 18.691 20.9418 19.0492 20.5 19.0492C20.0581 19.0492 19.7 18.691 19.7 18.2492V17.5492ZM32.45 22.0492H17.55V32.4492H32.45V22.0492ZM20.825 24.9989C20.825 24.557 21.1831 24.1989 21.625 24.1989H24.25C24.5575 24.1989 24.8378 24.3751 24.971 24.6523C25.1042 24.9295 25.0668 25.2585 24.8746 25.4986L24.0772 26.4954C24.3066 26.6575 24.5051 26.8608 24.6621 27.0957C24.8723 27.4101 25.0017 27.7715 25.0388 28.1478C25.076 28.5242 25.0198 28.9039 24.8751 29.2533C24.7305 29.6028 24.502 29.9111 24.2097 30.1512C23.9175 30.3912 23.5706 30.5554 23.1997 30.6294C22.8288 30.7033 22.4454 30.6847 22.0835 30.5751C21.7215 30.4655 21.3922 30.2684 21.1246 30.0011C20.812 29.6889 20.8117 29.1824 21.1239 28.8698C21.4361 28.5571 21.9427 28.5568 22.2553 28.8691C22.3367 28.9504 22.4369 29.0104 22.5471 29.0437C22.6573 29.0771 22.774 29.0828 22.8868 29.0603C22.9997 29.0378 23.1053 28.9878 23.1942 28.9147C23.2832 28.8417 23.3527 28.7478 23.3968 28.6415C23.4408 28.5351 23.4579 28.4196 23.4466 28.305C23.4353 28.1905 23.3959 28.0805 23.3319 27.9848C23.268 27.8891 23.1814 27.8107 23.0799 27.7565C22.9784 27.7022 22.8651 27.6738 22.75 27.6738C22.4424 27.6738 22.1621 27.4975 22.0289 27.2204C21.8957 26.9432 21.9331 26.6142 22.1253 26.3741L22.5854 25.7989H21.625C21.1831 25.7989 20.825 25.4407 20.825 24.9989ZM28.3577 24.2834C28.6287 24.4189 28.8 24.6959 28.8 24.9989V29.8739C28.8 30.3158 28.4418 30.6739 28 30.6739C27.5581 30.6739 27.2 30.3158 27.2 29.8739V26.5989L26.98 26.7639C26.6265 27.029 26.125 26.9574 25.86 26.6039C25.5949 26.2505 25.6665 25.749 26.02 25.4839L27.52 24.3589C27.7624 24.1771 28.0867 24.1479 28.3577 24.2834Z" fill="#21BA72"/>
</svg>
