<svg width="50" height="50" viewBox="0 0 50 50" fill="none" xmlns="http://www.w3.org/2000/svg">
<rect width="50" height="50" rx="25" fill="white"/>
<path fill-rule="evenodd" clip-rule="evenodd" d="M17.5925 16.0925C18.1645 15.5206 18.9403 15.1992 19.7492 15.1992H32.4992C32.941 15.1992 33.2992 15.5574 33.2992 15.9992V30.9992C33.2992 31.441 32.941 31.7992 32.4992 31.7992H19.7492C19.3647 31.7992 18.9958 31.952 18.7239 32.2239C18.4638 32.484 18.3127 32.8328 18.3001 33.1992H30.9992C31.441 33.1992 31.7992 33.5574 31.7992 33.9992C31.7992 34.441 31.441 34.7992 30.9992 34.7992H17.4992C17.0574 34.7992 16.6992 34.441 16.6992 33.9992V18.2492C16.6992 17.4403 17.0206 16.6645 17.5925 16.0925ZM18.2992 30.5659V18.2492C18.2992 17.8647 18.452 17.4958 18.7239 17.2239C18.9958 16.952 19.3647 16.7992 19.7492 16.7992H31.6992V30.1992H19.7492C19.2383 30.1992 18.7407 30.3274 18.2992 30.5659Z" fill="#21BA72"/>
</svg>
