<svg width="50" height="50" viewBox="0 0 50 50" fill="none" xmlns="http://www.w3.org/2000/svg">
<rect width="50" height="50" rx="25" fill="white"/>
<path fill-rule="evenodd" clip-rule="evenodd" d="M23.3325 15.7992C23.1886 15.7992 23.0719 15.9159 23.0719 16.0598V19.6929C26.8919 20.0683 29.9304 23.1065 30.3062 26.9264H33.9385C34.0824 26.9264 34.1991 26.8097 34.1991 26.6658V16.0598C34.1991 15.9159 34.0824 15.7992 33.9385 15.7992H23.3325ZM30.3062 28.5264H33.9385C34.9661 28.5264 35.7991 27.6934 35.7991 26.6658V16.0598C35.7991 15.0322 34.9661 14.1992 33.9385 14.1992H23.3325C22.3049 14.1992 21.4719 15.0322 21.4719 16.0598V19.693C17.3894 20.095 14.2 23.5383 14.2 27.7265C14.2 32.1849 17.8142 35.7992 22.2726 35.7992C26.4611 35.7992 29.9046 32.6093 30.3062 28.5264ZM28.6964 26.9264C28.3345 23.9911 26.0074 21.6642 23.0719 21.3027V26.6658C23.0719 26.8097 23.1886 26.9264 23.3325 26.9264H28.6964ZM21.4719 21.3028V26.6658C21.4719 27.6934 22.3049 28.5264 23.3325 28.5264H28.6964C28.3023 31.7238 25.5766 34.1992 22.2726 34.1992C18.6979 34.1992 15.8 31.3013 15.8 27.7265C15.8 24.4229 18.275 21.6973 21.4719 21.3028Z" fill="#21BA72"/>
</svg>
