<svg width="50" height="50" viewBox="0 0 50 50" fill="none" xmlns="http://www.w3.org/2000/svg">
<rect width="50" height="50" rx="25" fill="#F5F5F5"/>
<path fill-rule="evenodd" clip-rule="evenodd" d="M24.9994 17.0805L17.55 23.8539V32.4499L21.9494 32.4494V27.9993C21.9494 27.5882 22.1127 27.1939 22.4034 26.9032C22.6941 26.6126 23.0883 26.4493 23.4994 26.4493H26.4994C26.9105 26.4493 27.3047 26.6126 27.5954 26.9032C27.8861 27.1939 28.0494 27.5882 28.0494 27.9993V32.4494L32.45 32.4499V23.8539L24.9994 17.0805ZM23.9567 15.8661C24.242 15.6067 24.6138 15.4629 24.9994 15.4629C25.385 15.4629 25.7568 15.6066 26.0421 15.866L33.5426 22.6849C33.7024 22.8302 33.8301 23.0073 33.9175 23.2048C34.0048 23.4023 34.0499 23.6158 34.0499 23.8318V32.4999C34.0499 32.7035 34.0099 32.9051 33.9319 33.0932C33.854 33.2812 33.7398 33.4521 33.5959 33.596C33.4519 33.74 33.2811 33.8541 33.093 33.932C32.9049 34.0099 32.7033 34.05 32.4998 34.0499L27.9992 34.0494C27.5882 34.0493 27.194 33.886 26.9033 33.5953C26.6127 33.3046 26.4494 32.9104 26.4494 32.4993V28.0493H23.5494V32.4993C23.5494 32.9104 23.3861 33.3046 23.0955 33.5953C22.8048 33.886 22.4106 34.0493 21.9996 34.0494L17.5002 34.0499C17.2966 34.05 17.095 34.0099 16.9069 33.932C16.7188 33.8541 16.548 33.74 16.404 33.596C16.2601 33.4521 16.1459 33.2812 16.068 33.0931C15.99 32.9051 15.95 32.7035 15.95 32.4999V23.8318C15.95 23.6158 15.9951 23.4023 16.0824 23.2048C16.1698 23.0073 16.2974 22.8302 16.4572 22.685L23.9567 15.8661Z" fill="#262626"/>
</svg>
