<?xml version="1.0" ?><svg fill="none" height="24" viewBox="0 0 24 24" width="24" xmlns="http://www.w3.org/2000/svg"><path clip-rule="evenodd" d="M1.5 5.5C1.5 4.11929 2.61929 3 4 3H20C21.3807 3 22.5 4.11929 22.5 5.5V16.5C22.5 17.8807 21.3807 19 20 19H4C2.61929 19 1.5 17.8807 1.5 16.5V5.5ZM4 4C3.17157 4 2.5 4.67157 2.5 5.5V16.5C2.5 17.3284 3.17157 18 4 18H20C20.8284 18 21.5 17.3284 21.5 16.5V5.5C21.5 4.67157 20.8284 4 20 4H4Z" fill="black" fill-rule="evenodd"/><path clip-rule="evenodd" d="M9.76909 7.05651C9.93446 6.97041 10.134 6.98347 10.2867 7.09038L15.2867 10.5904C15.4204 10.6839 15.5 10.8368 15.5 11C15.5 11.1632 15.4204 11.3161 15.2867 11.4096L10.2867 14.9096C10.134 15.0165 9.93446 15.0296 9.76909 14.9435C9.60373 14.8574 9.5 14.6864 9.5 14.5V7.5C9.5 7.31356 9.60373 7.14261 9.76909 7.05651ZM10.5 8.46033V13.5397L14.1281 11L10.5 8.46033Z" fill="black" fill-rule="evenodd"/><path clip-rule="evenodd" d="M18 21.5H6V20.5H18V21.5Z" fill="black" fill-rule="evenodd"/></svg>