<svg width="50" height="50" viewBox="0 0 50 50" fill="none" xmlns="http://www.w3.org/2000/svg">
<rect width="50" height="50" rx="25" fill="#F5F5F5"/>
<path fill-rule="evenodd" clip-rule="evenodd" d="M25.5093 17.0106C26.5046 16.0158 27.8542 15.4569 29.2614 15.457C30.6687 15.4572 32.0182 16.0162 33.0133 17.0113C34.0083 18.0063 34.5674 19.3559 34.5675 20.7631C34.5676 22.1703 34.0088 23.52 33.0139 24.5152L30.3583 27.1708C30.0459 27.4832 29.5394 27.4832 29.2269 27.1708C28.9145 26.8584 28.9145 26.3519 29.2269 26.0394L31.8823 23.384C31.8824 23.384 31.8823 23.3841 31.8823 23.384C32.5772 22.6889 32.9676 21.7461 32.9675 20.7633C32.9674 19.7803 32.5769 18.8377 31.8819 18.1427C31.1869 17.4476 30.2442 17.0571 29.2613 17.057C28.2784 17.0569 27.3358 17.4473 26.6406 18.1421C26.6406 18.1421 26.6406 18.1421 26.6406 18.1421L23.9851 20.7976C23.6727 21.11 23.1662 21.11 22.8537 20.7976C22.5413 20.4852 22.5413 19.9787 22.8537 19.6662L25.5093 17.0106ZM28.7644 21.26C29.0769 21.5724 29.0769 22.0789 28.7645 22.3913L22.3913 28.7645C22.0789 29.077 21.5724 29.077 21.2599 28.7645C20.9475 28.4521 20.9475 27.9456 21.2599 27.6332L27.6331 21.26C27.9455 20.9476 28.452 20.9475 28.7644 21.26ZM20.7981 22.8538C21.1105 23.1662 21.1105 23.6727 20.7981 23.9851L18.1427 26.6405C18.1427 26.6405 18.1427 26.6405 18.1427 26.6405C17.4478 27.3357 17.0574 28.2784 17.0575 29.2613C17.0576 30.2442 17.4481 31.1868 18.1431 31.8819C18.8382 32.5769 19.7808 32.9674 20.7637 32.9675C21.7467 32.9675 22.6894 32.5772 23.3845 31.8823L26.0399 29.2269C26.3524 28.9145 26.8589 28.9145 27.1713 29.2269C27.4837 29.5393 27.4837 30.0459 27.1713 30.3583L24.5158 33.0138C23.5206 34.0087 22.1708 34.5676 20.7636 34.5675C19.3564 34.5673 18.0068 34.0083 17.0118 33.0132C16.0167 32.0182 15.4576 30.6686 15.4575 29.2614C15.4574 27.8542 16.0162 26.5046 17.0111 25.5093L19.6667 22.8538C19.9791 22.5413 20.4857 22.5413 20.7981 22.8538Z" fill="#262626"/>
</svg>
