<svg viewBox="0 0 24 24" xmlns="http://www.w3.org/2000/svg">
    <path fill-rule="evenodd" clip-rule="evenodd" d="M12 2.20099C6.58756 2.20099 2.19995 6.5886 2.19995 12.001C2.19995 17.4134 6.58756 21.801 12 21.801C17.4123 21.801 21.7999 17.4134 21.7999 12.001C21.7999 6.5886 17.4123 2.20099 12 2.20099ZM12 6.70099C12.4418 6.70099 12.8 7.05916 12.8 7.50099V12.751C12.8 13.1928 12.4418 13.551 12 13.551C11.5581 13.551 11.2 13.1928 11.2 12.751V7.50099C11.2 7.05916 11.5581 6.70099 12 6.70099ZM11.2 15.8401C11.2 15.3982 11.5581 15.0401 12 15.0401H12.0012C12.443 15.0401 12.8012 15.3982 12.8012 15.8401C12.8012 16.2819 12.443 16.6401 12.0012 16.6401H12C11.5581 16.6401 11.2 16.2819 11.2 15.8401Z" />
</svg>
