<svg width="24" height="24" viewBox="0 0 24 24" fill="none" xmlns="http://www.w3.org/2000/svg">
<path fill-rule="evenodd" clip-rule="evenodd" d="M11.9992 2.20099C6.58683 2.20099 2.19922 6.5886 2.19922 12.001C2.19922 17.4134 6.58683 21.801 11.9992 21.801C17.4116 21.801 21.7992 17.4134 21.7992 12.001C21.7992 6.5886 17.4116 2.20099 11.9992 2.20099ZM11.9992 6.70099C12.441 6.70099 12.7992 7.05916 12.7992 7.50099V12.751C12.7992 13.1928 12.441 13.551 11.9992 13.551C11.5574 13.551 11.1992 13.1928 11.1992 12.751V7.50099C11.1992 7.05916 11.5574 6.70099 11.9992 6.70099ZM11.1992 15.8401C11.1992 15.3982 11.5574 15.0401 11.9992 15.0401H12.0004C12.4422 15.0401 12.8004 15.3982 12.8004 15.8401C12.8004 16.2819 12.4422 16.6401 12.0004 16.6401H11.9992C11.5574 16.6401 11.1992 16.2819 11.1992 15.8401Z" fill="#FBBF24"/>
</svg>
